<mxfile host="app.diagrams.net" agent="Mozilla/5.0 (Macintosh; Intel Mac OS X 10_15_7) AppleWebKit/537.36 (KHTML, like Gecko) Chrome/136.0.0.0 Safari/537.36 Edg/136.0.0.0" version="27.0.5" pages="2">
  <diagram name="Decision Tree" id="VX8alNq_s7ivsaoeQZxm">
    <mxGraphModel dx="2058" dy="2332" grid="1" gridSize="10" guides="1" tooltips="1" connect="1" arrows="1" fold="1" page="1" pageScale="1" pageWidth="827" pageHeight="1169" math="0" shadow="0">
      <root>
        <mxCell id="OZ9AxooTVeGa2e1UKhC_-0" />
        <mxCell id="OZ9AxooTVeGa2e1UKhC_-1" parent="OZ9AxooTVeGa2e1UKhC_-0" />
        <mxCell id="PnaUjTbA2eYcw9_eckQJ-103" style="edgeStyle=orthogonalEdgeStyle;rounded=0;jumpStyle=none;orthogonalLoop=1;jettySize=auto;html=1;strokeWidth=2;exitX=1;exitY=0.5;exitDx=0;exitDy=0;entryX=0;entryY=0.5;entryDx=0;entryDy=0;" parent="OZ9AxooTVeGa2e1UKhC_-1" source="PnaUjTbA2eYcw9_eckQJ-141" target="OZ9AxooTVeGa2e1UKhC_-67" edge="1">
          <mxGeometry relative="1" as="geometry">
            <mxPoint x="420" y="-90" as="sourcePoint" />
            <mxPoint x="849" y="355" as="targetPoint" />
            <Array as="points">
              <mxPoint x="850" y="-110" />
              <mxPoint x="850" y="55" />
              <mxPoint x="860" y="55" />
            </Array>
          </mxGeometry>
        </mxCell>
        <mxCell id="PnaUjTbA2eYcw9_eckQJ-142" value="&lt;font size=&quot;1&quot;&gt;&lt;b style=&quot;font-size: 15px&quot;&gt;Yes&lt;/b&gt;&lt;/font&gt;" style="edgeLabel;html=1;align=center;verticalAlign=middle;resizable=0;points=[];" parent="PnaUjTbA2eYcw9_eckQJ-103" vertex="1" connectable="0">
          <mxGeometry x="-0.9483" relative="1" as="geometry">
            <mxPoint x="-3.990000000000002" as="offset" />
          </mxGeometry>
        </mxCell>
        <mxCell id="OZ9AxooTVeGa2e1UKhC_-131" style="edgeStyle=orthogonalEdgeStyle;rounded=0;orthogonalLoop=1;jettySize=auto;html=1;exitX=0.5;exitY=1;exitDx=0;exitDy=0;" parent="OZ9AxooTVeGa2e1UKhC_-1" source="OZ9AxooTVeGa2e1UKhC_-130" edge="1" target="OZ9AxooTVeGa2e1UKhC_-17">
          <mxGeometry relative="1" as="geometry">
            <mxPoint x="865" y="-1000" as="targetPoint" />
            <Array as="points">
              <mxPoint x="465" y="-1030" />
            </Array>
          </mxGeometry>
        </mxCell>
        <mxCell id="OZ9AxooTVeGa2e1UKhC_-130" value="&lt;b&gt;&lt;font style=&quot;font-size: 16px&quot;&gt;Key Business Drivers&lt;/font&gt;&lt;/b&gt;" style="rounded=1;whiteSpace=wrap;html=1;verticalAlign=top;" parent="OZ9AxooTVeGa2e1UKhC_-1" vertex="1">
          <mxGeometry x="360" y="-1150" width="1000" height="120" as="geometry" />
        </mxCell>
        <mxCell id="OZ9AxooTVeGa2e1UKhC_-2" value="&lt;span style=&quot;color: rgb(71 , 71 , 70) ; font-family: &amp;#34;arial&amp;#34; ; font-weight: bold&quot;&gt;&lt;font style=&quot;font-size: 14px&quot;&gt;1 - Cost Reduction / Avoidance&lt;/font&gt;&lt;/span&gt;&lt;br&gt;&lt;p style=&quot;margin-top: 0pt ; margin-bottom: 0pt ; margin-left: 0in ; direction: ltr ; unicode-bidi: embed ; word-break: normal&quot;&gt;&lt;span style=&quot;font-family: &amp;#34;arial&amp;#34; ; color: rgb(71 , 71 , 70)&quot;&gt;&lt;font style=&quot;font-size: 12px&quot;&gt;&lt;i&gt;&lt;font style=&quot;font-size: 12px&quot;&gt;(&lt;/font&gt;&lt;font style=&quot;font-size: 12px&quot;&gt;Licence renewal, hardware refresh,&amp;nbsp;&lt;/font&gt;&lt;/i&gt;&lt;/font&gt;&lt;/span&gt;&lt;/p&gt;&lt;span style=&quot;color: rgb(71 , 71 , 70) ; font-family: &amp;#34;arial&amp;#34;&quot;&gt;&lt;font style=&quot;font-size: 12px&quot;&gt;&lt;i&gt;increased operational efficiency)&lt;/i&gt;&lt;/font&gt;&lt;/span&gt;" style="rounded=1;whiteSpace=wrap;html=1;arcSize=25;fillColor=#e1d5e7;strokeColor=#9673a6;" parent="OZ9AxooTVeGa2e1UKhC_-1" vertex="1">
          <mxGeometry x="380" y="-1118.97" width="290" height="80" as="geometry" />
        </mxCell>
        <mxCell id="OZ9AxooTVeGa2e1UKhC_-4" value="&lt;span style=&quot;color: rgb(71 , 71 , 70) ; font-family: &amp;#34;arial&amp;#34; ; font-weight: bold&quot;&gt;&lt;font style=&quot;font-size: 14px&quot;&gt;2 - Business Transformation&lt;/font&gt;&lt;/span&gt;&lt;br&gt;&lt;font color=&quot;#474746&quot; face=&quot;arial&quot; size=&quot;1&quot;&gt;&lt;i style=&quot;font-size: 12px&quot;&gt;(Increased innovation &amp;amp; agility, reduced time to market)&lt;br&gt;&lt;/i&gt;&lt;/font&gt;" style="rounded=1;whiteSpace=wrap;html=1;arcSize=25;fillColor=#e1d5e7;strokeColor=#9673a6;" parent="OZ9AxooTVeGa2e1UKhC_-1" vertex="1">
          <mxGeometry x="715" y="-1118.97" width="290" height="80" as="geometry" />
        </mxCell>
        <mxCell id="OZ9AxooTVeGa2e1UKhC_-16" style="edgeStyle=orthogonalEdgeStyle;rounded=0;orthogonalLoop=1;jettySize=auto;html=1;exitX=0.5;exitY=1;exitDx=0;exitDy=0;entryX=0.5;entryY=0;entryDx=0;entryDy=0;" parent="OZ9AxooTVeGa2e1UKhC_-1" source="OZ9AxooTVeGa2e1UKhC_-17" target="xI8y_BiO7yNf7XKkc1zp-9" edge="1">
          <mxGeometry relative="1" as="geometry">
            <mxPoint x="465.25" y="-890.03" as="targetPoint" />
            <Array as="points" />
          </mxGeometry>
        </mxCell>
        <mxCell id="OZ9AxooTVeGa2e1UKhC_-17" value="&lt;font color=&quot;#474746&quot; face=&quot;arial&quot;&gt;&lt;span style=&quot;font-size: 14px&quot;&gt;&lt;b&gt;In-Scope Applications&lt;/b&gt;&lt;/span&gt;&lt;br&gt;&lt;/font&gt;" style="rounded=1;whiteSpace=wrap;html=1;fillColor=#dae8fc;strokeColor=#6c8ebf;" parent="OZ9AxooTVeGa2e1UKhC_-1" vertex="1">
          <mxGeometry x="400" y="-1000" width="130" height="60" as="geometry" />
        </mxCell>
        <mxCell id="OZ9AxooTVeGa2e1UKhC_-67" value="&lt;b&gt;&lt;font style=&quot;font-size: 15px&quot;&gt;REPLATFORM&lt;/font&gt;&lt;/b&gt;" style="rounded=0;whiteSpace=wrap;html=1;fillColor=#fff2cc;strokeWidth=2;strokeColor=#D6B656;" parent="OZ9AxooTVeGa2e1UKhC_-1" vertex="1">
          <mxGeometry x="860" y="31.980000000000018" width="160" height="60" as="geometry" />
        </mxCell>
        <mxCell id="vrrk7I1wzK6dKrYvRH3h-16" style="edgeStyle=orthogonalEdgeStyle;rounded=0;jumpStyle=arc;orthogonalLoop=1;jettySize=auto;html=1;strokeWidth=2;exitX=0.5;exitY=1;exitDx=0;exitDy=0;entryX=1;entryY=0.5;entryDx=0;entryDy=0;" parent="OZ9AxooTVeGa2e1UKhC_-1" source="PnaUjTbA2eYcw9_eckQJ-95" edge="1" target="OZ9AxooTVeGa2e1UKhC_-104">
          <mxGeometry relative="1" as="geometry">
            <Array as="points">
              <mxPoint x="1355" y="62" />
            </Array>
            <mxPoint x="1081.01" y="354" as="sourcePoint" />
            <mxPoint x="1530" y="62" as="targetPoint" />
          </mxGeometry>
        </mxCell>
        <mxCell id="vrrk7I1wzK6dKrYvRH3h-18" value="&lt;b&gt;&lt;font style=&quot;font-size: 15px&quot;&gt;Yes&lt;/font&gt;&lt;/b&gt;" style="edgeLabel;html=1;align=center;verticalAlign=middle;resizable=0;points=[];" parent="vrrk7I1wzK6dKrYvRH3h-16" vertex="1" connectable="0">
          <mxGeometry x="-0.9572" y="1" relative="1" as="geometry">
            <mxPoint y="38" as="offset" />
          </mxGeometry>
        </mxCell>
        <mxCell id="gcGsXrnnqoqhViTeDqAT-4" value="&lt;b&gt;2%&lt;/b&gt;" style="edgeLabel;html=1;align=center;verticalAlign=middle;resizable=0;points=[];" vertex="1" connectable="0" parent="vrrk7I1wzK6dKrYvRH3h-16">
          <mxGeometry x="0.5077" y="1" relative="1" as="geometry">
            <mxPoint as="offset" />
          </mxGeometry>
        </mxCell>
        <mxCell id="OZ9AxooTVeGa2e1UKhC_-104" value="&lt;b style=&quot;font-size: 15px&quot;&gt;REFACTOR / &lt;br&gt;RE-ARCHITECT&lt;/b&gt;" style="rounded=0;whiteSpace=wrap;html=1;fillColor=#fff2cc;strokeWidth=2;strokeColor=#D6B656;" parent="OZ9AxooTVeGa2e1UKhC_-1" vertex="1">
          <mxGeometry x="1180" y="31.980000000000018" width="160" height="60" as="geometry" />
        </mxCell>
        <mxCell id="7ZSVmvyxEU6zFuQFi4_P-17" value="&lt;b&gt;&lt;font style=&quot;font-size: 15px&quot;&gt;REHOST / RELOCATE&lt;/font&gt;&lt;/b&gt;" style="rounded=0;whiteSpace=wrap;html=1;fillColor=#fff2cc;strokeWidth=2;strokeColor=#D6B656;" parent="OZ9AxooTVeGa2e1UKhC_-1" vertex="1">
          <mxGeometry x="520" y="31.980000000000018" width="157" height="60" as="geometry" />
        </mxCell>
        <mxCell id="PnaUjTbA2eYcw9_eckQJ-88" style="edgeStyle=orthogonalEdgeStyle;rounded=0;jumpStyle=none;orthogonalLoop=1;jettySize=auto;html=1;exitX=1;exitY=0.5;exitDx=0;exitDy=0;strokeWidth=2;entryX=0;entryY=0.5;entryDx=0;entryDy=0;" parent="OZ9AxooTVeGa2e1UKhC_-1" source="ZTFnm-I9X0W1Cd60F8cL-1" target="OZ9AxooTVeGa2e1UKhC_-67" edge="1">
          <mxGeometry relative="1" as="geometry">
            <mxPoint x="849" y="370" as="targetPoint" />
            <Array as="points">
              <mxPoint x="850" y="-340" />
              <mxPoint x="850" y="62" />
            </Array>
            <mxPoint x="420" y="-325" as="sourcePoint" />
          </mxGeometry>
        </mxCell>
        <mxCell id="PnaUjTbA2eYcw9_eckQJ-89" value="&lt;font size=&quot;1&quot;&gt;&lt;b style=&quot;font-size: 15px&quot;&gt;Yes&lt;/b&gt;&lt;/font&gt;" style="edgeLabel;html=1;align=center;verticalAlign=middle;resizable=0;points=[];" parent="PnaUjTbA2eYcw9_eckQJ-88" vertex="1" connectable="0">
          <mxGeometry x="-0.9654" y="2" relative="1" as="geometry">
            <mxPoint x="21" y="2" as="offset" />
          </mxGeometry>
        </mxCell>
        <mxCell id="gcGsXrnnqoqhViTeDqAT-3" value="&lt;b&gt;8%&lt;/b&gt;" style="edgeLabel;html=1;align=center;verticalAlign=middle;resizable=0;points=[];" vertex="1" connectable="0" parent="PnaUjTbA2eYcw9_eckQJ-88">
          <mxGeometry x="0.7985" y="1" relative="1" as="geometry">
            <mxPoint as="offset" />
          </mxGeometry>
        </mxCell>
        <mxCell id="ZTFnm-I9X0W1Cd60F8cL-1" value="&lt;b style=&quot;color: rgb(71 , 71 , 70) ; font-family: &amp;#34;arial&amp;#34;&quot;&gt;&lt;font style=&quot;font-size: 14px&quot;&gt;Is upgrade supported or&lt;br&gt;move to AWS managed service&lt;br&gt;possible?&lt;/font&gt;&lt;/b&gt;" style="rhombus;whiteSpace=wrap;html=1;fillColor=#d5e8d4;strokeColor=#82b366;" parent="OZ9AxooTVeGa2e1UKhC_-1" vertex="1">
          <mxGeometry x="401" y="-415" width="130" height="150" as="geometry" />
        </mxCell>
        <mxCell id="xI8y_BiO7yNf7XKkc1zp-0" value="&lt;span style=&quot;color: rgb(71 , 71 , 70) ; font-family: &amp;#34;arial&amp;#34; ; font-size: 14px&quot;&gt;&lt;b&gt;3 - Risk Reduction&lt;br&gt;&lt;/b&gt;&lt;/span&gt;&lt;font color=&quot;#474746&quot; face=&quot;arial&quot; size=&quot;1&quot;&gt;&lt;i style=&quot;font-size: 12px&quot;&gt;(&lt;/i&gt;&lt;/font&gt;&lt;i style=&quot;color: rgb(71 , 71 , 70) ; font-family: &amp;#34;arial&amp;#34;&quot;&gt;Regulatory requirements, end of life H/W, unsupported application, audit compliance)&lt;/i&gt;" style="rounded=1;whiteSpace=wrap;html=1;arcSize=25;fillColor=#e1d5e7;strokeColor=#9673a6;" parent="OZ9AxooTVeGa2e1UKhC_-1" vertex="1">
          <mxGeometry x="1046" y="-1118.97" width="290" height="80" as="geometry" />
        </mxCell>
        <mxCell id="PnaUjTbA2eYcw9_eckQJ-168" style="edgeStyle=orthogonalEdgeStyle;rounded=0;jumpStyle=none;orthogonalLoop=1;jettySize=auto;html=1;exitX=1;exitY=0.5;exitDx=0;exitDy=0;strokeWidth=1;" parent="OZ9AxooTVeGa2e1UKhC_-1" source="xI8y_BiO7yNf7XKkc1zp-9" edge="1">
          <mxGeometry relative="1" as="geometry">
            <mxPoint x="620" y="-610" as="targetPoint" />
            <Array as="points">
              <mxPoint x="620" y="-815" />
            </Array>
          </mxGeometry>
        </mxCell>
        <mxCell id="PnaUjTbA2eYcw9_eckQJ-174" value="&lt;font size=&quot;1&quot;&gt;&lt;b style=&quot;font-size: 15px&quot;&gt;Yes&lt;/b&gt;&lt;/font&gt;" style="edgeLabel;html=1;align=center;verticalAlign=middle;resizable=0;points=[];" parent="PnaUjTbA2eYcw9_eckQJ-168" vertex="1" connectable="0">
          <mxGeometry x="-0.8758" y="-1" relative="1" as="geometry">
            <mxPoint x="1" y="-1" as="offset" />
          </mxGeometry>
        </mxCell>
        <mxCell id="PnaUjTbA2eYcw9_eckQJ-171" style="edgeStyle=orthogonalEdgeStyle;rounded=0;jumpStyle=none;orthogonalLoop=1;jettySize=auto;html=1;exitX=0.5;exitY=1;exitDx=0;exitDy=0;entryX=0.5;entryY=0;entryDx=0;entryDy=0;strokeWidth=1;" parent="OZ9AxooTVeGa2e1UKhC_-1" source="xI8y_BiO7yNf7XKkc1zp-9" target="PnaUjTbA2eYcw9_eckQJ-119" edge="1">
          <mxGeometry relative="1" as="geometry">
            <mxPoint x="465" y="-660" as="targetPoint" />
          </mxGeometry>
        </mxCell>
        <mxCell id="PnaUjTbA2eYcw9_eckQJ-175" value="&lt;font size=&quot;1&quot;&gt;&lt;b style=&quot;font-size: 15px&quot;&gt;No&lt;/b&gt;&lt;/font&gt;" style="edgeLabel;html=1;align=center;verticalAlign=middle;resizable=0;points=[];" parent="PnaUjTbA2eYcw9_eckQJ-171" vertex="1" connectable="0">
          <mxGeometry x="-0.6569" y="1" relative="1" as="geometry">
            <mxPoint x="-1" y="10" as="offset" />
          </mxGeometry>
        </mxCell>
        <mxCell id="xI8y_BiO7yNf7XKkc1zp-9" value="&lt;span style=&quot;color: rgb(71 , 71 , 70) ; font-family: &amp;#34;arial&amp;#34;&quot;&gt;&lt;b&gt;&lt;font style=&quot;font-size: 14px&quot;&gt;Revenue generating and/or strategic application?&lt;/font&gt;&lt;/b&gt;&lt;/span&gt;" style="rhombus;whiteSpace=wrap;html=1;fillColor=#d5e8d4;strokeWidth=1;strokeColor=#82B366;" parent="OZ9AxooTVeGa2e1UKhC_-1" vertex="1">
          <mxGeometry x="400" y="-890" width="130" height="150" as="geometry" />
        </mxCell>
        <mxCell id="PnaUjTbA2eYcw9_eckQJ-63" style="edgeStyle=orthogonalEdgeStyle;rounded=0;orthogonalLoop=1;jettySize=auto;html=1;exitX=1;exitY=0.5;exitDx=0;exitDy=0;entryX=0;entryY=0.5;entryDx=0;entryDy=0;strokeWidth=1;" parent="OZ9AxooTVeGa2e1UKhC_-1" source="WoaGg1t7EKX_rNA6zbp_-18" target="WoaGg1t7EKX_rNA6zbp_-36" edge="1">
          <mxGeometry relative="1" as="geometry" />
        </mxCell>
        <mxCell id="PnaUjTbA2eYcw9_eckQJ-64" value="&lt;font size=&quot;1&quot;&gt;&lt;b style=&quot;font-size: 15px&quot;&gt;Yes&lt;/b&gt;&lt;/font&gt;" style="edgeLabel;html=1;align=center;verticalAlign=middle;resizable=0;points=[];" parent="PnaUjTbA2eYcw9_eckQJ-63" vertex="1" connectable="0">
          <mxGeometry x="-0.2608" y="-3" relative="1" as="geometry">
            <mxPoint x="-10.000000000000002" y="-3" as="offset" />
          </mxGeometry>
        </mxCell>
        <mxCell id="PnaUjTbA2eYcw9_eckQJ-69" style="edgeStyle=orthogonalEdgeStyle;rounded=0;orthogonalLoop=1;jettySize=auto;html=1;exitX=0.5;exitY=1;exitDx=0;exitDy=0;strokeWidth=1;" parent="OZ9AxooTVeGa2e1UKhC_-1" source="WoaGg1t7EKX_rNA6zbp_-18" edge="1">
          <mxGeometry relative="1" as="geometry">
            <Array as="points">
              <mxPoint x="1002" y="-505" />
              <mxPoint x="1002" y="-505" />
            </Array>
            <mxPoint x="1002" y="-465" as="targetPoint" />
          </mxGeometry>
        </mxCell>
        <mxCell id="PnaUjTbA2eYcw9_eckQJ-72" value="&lt;font size=&quot;1&quot;&gt;&lt;b style=&quot;font-size: 15px&quot;&gt;No&lt;/b&gt;&lt;/font&gt;" style="edgeLabel;html=1;align=center;verticalAlign=middle;resizable=0;points=[];" parent="PnaUjTbA2eYcw9_eckQJ-69" vertex="1" connectable="0">
          <mxGeometry x="-0.8307" y="2" relative="1" as="geometry">
            <mxPoint x="-3" y="19" as="offset" />
          </mxGeometry>
        </mxCell>
        <mxCell id="WoaGg1t7EKX_rNA6zbp_-18" value="&lt;span style=&quot;color: rgb(71 , 71 , 70) ; font-family: &amp;#34;arial&amp;#34;&quot;&gt;&lt;b&gt;&lt;font style=&quot;font-size: 14px&quot;&gt;Investment available to Refactor / Re-architect?&lt;/font&gt;&lt;/b&gt;&lt;/span&gt;" style="rhombus;whiteSpace=wrap;html=1;fillColor=#d5e8d4;strokeWidth=1;strokeColor=#82B366;" parent="OZ9AxooTVeGa2e1UKhC_-1" vertex="1">
          <mxGeometry x="937" y="-690" width="130" height="150" as="geometry" />
        </mxCell>
        <mxCell id="PnaUjTbA2eYcw9_eckQJ-65" style="edgeStyle=orthogonalEdgeStyle;rounded=0;orthogonalLoop=1;jettySize=auto;html=1;exitX=1;exitY=0.5;exitDx=0;exitDy=0;strokeWidth=1;entryX=0.5;entryY=0;entryDx=0;entryDy=0;" parent="OZ9AxooTVeGa2e1UKhC_-1" source="WoaGg1t7EKX_rNA6zbp_-36" target="PnaUjTbA2eYcw9_eckQJ-92" edge="1">
          <mxGeometry relative="1" as="geometry">
            <mxPoint x="1440" y="-225" as="targetPoint" />
          </mxGeometry>
        </mxCell>
        <mxCell id="PnaUjTbA2eYcw9_eckQJ-66" value="&lt;font size=&quot;1&quot;&gt;&lt;b style=&quot;font-size: 15px&quot;&gt;Yes&lt;/b&gt;&lt;/font&gt;" style="edgeLabel;html=1;align=center;verticalAlign=middle;resizable=0;points=[];" parent="PnaUjTbA2eYcw9_eckQJ-65" vertex="1" connectable="0">
          <mxGeometry x="-0.2804" y="-1" relative="1" as="geometry">
            <mxPoint x="-6" y="-1" as="offset" />
          </mxGeometry>
        </mxCell>
        <mxCell id="KeZDLWuDLhJqC3MhvnPk-8" style="edgeStyle=orthogonalEdgeStyle;rounded=0;jumpStyle=none;orthogonalLoop=1;jettySize=auto;html=1;exitX=0.5;exitY=1;exitDx=0;exitDy=0;startArrow=none;startFill=0;endArrow=classic;endFill=1;strokeColor=#000000;strokeWidth=1;entryX=0.5;entryY=0;entryDx=0;entryDy=0;" parent="OZ9AxooTVeGa2e1UKhC_-1" source="WoaGg1t7EKX_rNA6zbp_-36" edge="1">
          <mxGeometry relative="1" as="geometry">
            <Array as="points">
              <mxPoint x="1222" y="-465" />
              <mxPoint x="465" y="-465" />
            </Array>
            <mxPoint x="465" y="-415" as="targetPoint" />
          </mxGeometry>
        </mxCell>
        <mxCell id="YeX6WkBohxKWWEyhnUzU-22" value="&lt;font style=&quot;font-size: 15px&quot;&gt;&lt;b&gt;No&lt;/b&gt;&lt;/font&gt;" style="edgeLabel;html=1;align=center;verticalAlign=middle;resizable=0;points=[];" parent="KeZDLWuDLhJqC3MhvnPk-8" vertex="1" connectable="0">
          <mxGeometry x="-0.9368" y="3" relative="1" as="geometry">
            <mxPoint y="-1" as="offset" />
          </mxGeometry>
        </mxCell>
        <mxCell id="WoaGg1t7EKX_rNA6zbp_-36" value="&lt;span style=&quot;color: rgb(71 , 71 , 70) ; font-family: &amp;#34;arial&amp;#34;&quot;&gt;&lt;b&gt;&lt;font style=&quot;font-size: 14px&quot;&gt;Can complete&lt;br&gt;&amp;nbsp;prior to migration deadline?&lt;/font&gt;&lt;/b&gt;&lt;/span&gt;" style="rhombus;whiteSpace=wrap;html=1;fillColor=#d5e8d4;strokeWidth=1;strokeColor=#82B366;" parent="OZ9AxooTVeGa2e1UKhC_-1" vertex="1">
          <mxGeometry x="1157" y="-690" width="130" height="150" as="geometry" />
        </mxCell>
        <mxCell id="PnaUjTbA2eYcw9_eckQJ-139" style="edgeStyle=orthogonalEdgeStyle;rounded=0;jumpStyle=none;orthogonalLoop=1;jettySize=auto;html=1;strokeWidth=1;exitX=0.5;exitY=1;exitDx=0;exitDy=0;" parent="OZ9AxooTVeGa2e1UKhC_-1" source="ZTFnm-I9X0W1Cd60F8cL-1" target="PnaUjTbA2eYcw9_eckQJ-141" edge="1">
          <mxGeometry relative="1" as="geometry">
            <mxPoint x="254" y="105" as="sourcePoint" />
            <mxPoint x="254" y="185" as="targetPoint" />
          </mxGeometry>
        </mxCell>
        <mxCell id="PnaUjTbA2eYcw9_eckQJ-140" value="&lt;font size=&quot;1&quot;&gt;&lt;b style=&quot;font-size: 15px&quot;&gt;No or N/A&lt;/b&gt;&lt;/font&gt;" style="edgeLabel;html=1;align=center;verticalAlign=middle;resizable=0;points=[];" parent="PnaUjTbA2eYcw9_eckQJ-139" vertex="1" connectable="0">
          <mxGeometry x="-0.5381" y="-1" relative="1" as="geometry">
            <mxPoint x="2.01" y="4" as="offset" />
          </mxGeometry>
        </mxCell>
        <mxCell id="PnaUjTbA2eYcw9_eckQJ-96" style="edgeStyle=orthogonalEdgeStyle;rounded=0;jumpStyle=none;orthogonalLoop=1;jettySize=auto;html=1;exitX=0.5;exitY=1;exitDx=0;exitDy=0;entryX=0.5;entryY=0;entryDx=0;entryDy=0;strokeWidth=1;" parent="OZ9AxooTVeGa2e1UKhC_-1" source="PnaUjTbA2eYcw9_eckQJ-92" target="PnaUjTbA2eYcw9_eckQJ-95" edge="1">
          <mxGeometry relative="1" as="geometry" />
        </mxCell>
        <mxCell id="PnaUjTbA2eYcw9_eckQJ-92" value="&lt;font color=&quot;#474746&quot; face=&quot;arial&quot;&gt;&lt;b&gt;&lt;font style=&quot;font-size: 14px&quot;&gt;Assess investment and timeline/effort for modernization&lt;/font&gt;&lt;/b&gt;&lt;br&gt;&lt;/font&gt;" style="rounded=1;whiteSpace=wrap;html=1;fillColor=#dae8fc;strokeColor=#6c8ebf;" parent="OZ9AxooTVeGa2e1UKhC_-1" vertex="1">
          <mxGeometry x="1290" y="-545" width="130" height="60" as="geometry" />
        </mxCell>
        <mxCell id="17NxdBk9iJhNhV06l2LF-1" style="edgeStyle=orthogonalEdgeStyle;rounded=0;orthogonalLoop=1;jettySize=auto;html=1;exitX=0;exitY=0.5;exitDx=0;exitDy=0;entryX=1;entryY=0.5;entryDx=0;entryDy=0;" parent="OZ9AxooTVeGa2e1UKhC_-1" source="PnaUjTbA2eYcw9_eckQJ-95" target="17NxdBk9iJhNhV06l2LF-0" edge="1">
          <mxGeometry relative="1" as="geometry" />
        </mxCell>
        <mxCell id="17NxdBk9iJhNhV06l2LF-2" value="&lt;font style=&quot;font-size: 15px&quot;&gt;&lt;b&gt;No&lt;/b&gt;&lt;/font&gt;" style="edgeLabel;html=1;align=center;verticalAlign=middle;resizable=0;points=[];" parent="17NxdBk9iJhNhV06l2LF-1" vertex="1" connectable="0">
          <mxGeometry x="-0.4711" y="1" relative="1" as="geometry">
            <mxPoint as="offset" />
          </mxGeometry>
        </mxCell>
        <mxCell id="PnaUjTbA2eYcw9_eckQJ-95" value="&lt;span style=&quot;color: rgb(71 , 71 , 70) ; font-family: &amp;#34;arial&amp;#34;&quot;&gt;&lt;b&gt;&lt;font style=&quot;font-size: 14px&quot;&gt;Modernize?&lt;/font&gt;&lt;/b&gt;&lt;/span&gt;" style="rhombus;whiteSpace=wrap;html=1;fillColor=#d5e8d4;strokeColor=#82b366;" parent="OZ9AxooTVeGa2e1UKhC_-1" vertex="1">
          <mxGeometry x="1290" y="-420" width="130" height="150" as="geometry" />
        </mxCell>
        <mxCell id="PnaUjTbA2eYcw9_eckQJ-170" style="edgeStyle=orthogonalEdgeStyle;rounded=0;jumpStyle=none;orthogonalLoop=1;jettySize=auto;html=1;exitX=1;exitY=0.5;exitDx=0;exitDy=0;strokeWidth=1;entryX=0;entryY=0.5;entryDx=0;entryDy=0;" parent="OZ9AxooTVeGa2e1UKhC_-1" source="PnaUjTbA2eYcw9_eckQJ-119" target="3t-5_ZxKbkYWqgZyLfev-3" edge="1">
          <mxGeometry relative="1" as="geometry">
            <mxPoint x="661" y="-545" as="targetPoint" />
            <Array as="points">
              <mxPoint x="661" y="-615" />
              <mxPoint x="661" y="-615" />
            </Array>
          </mxGeometry>
        </mxCell>
        <mxCell id="PnaUjTbA2eYcw9_eckQJ-178" value="&lt;font size=&quot;1&quot;&gt;&lt;b style=&quot;font-size: 15px&quot;&gt;High&lt;/b&gt;&lt;/font&gt;" style="edgeLabel;html=1;align=center;verticalAlign=middle;resizable=0;points=[];" parent="PnaUjTbA2eYcw9_eckQJ-170" vertex="1" connectable="0">
          <mxGeometry x="-0.6697" y="-2" relative="1" as="geometry">
            <mxPoint x="2.87" y="-2" as="offset" />
          </mxGeometry>
        </mxCell>
        <mxCell id="PnaUjTbA2eYcw9_eckQJ-119" value="&lt;font color=&quot;#474746&quot; face=&quot;arial&quot; size=&quot;1&quot;&gt;&lt;b style=&quot;font-size: 14px&quot;&gt;Current operational complexity &lt;br&gt;level?&lt;/b&gt;&lt;/font&gt;" style="rhombus;whiteSpace=wrap;html=1;fillColor=#d5e8d4;strokeWidth=1;strokeColor=#82B366;" parent="OZ9AxooTVeGa2e1UKhC_-1" vertex="1">
          <mxGeometry x="400" y="-690" width="130" height="150" as="geometry" />
        </mxCell>
        <mxCell id="PnaUjTbA2eYcw9_eckQJ-141" value="&lt;span style=&quot;color: rgb(71 , 71 , 70) ; font-family: &amp;#34;arial&amp;#34;&quot;&gt;&lt;b&gt;&lt;font style=&quot;font-size: 14px&quot;&gt;Replatform?&lt;/font&gt;&lt;/b&gt;&lt;/span&gt;" style="rhombus;whiteSpace=wrap;html=1;fillColor=#d5e8d4;strokeColor=#82b366;" parent="OZ9AxooTVeGa2e1UKhC_-1" vertex="1">
          <mxGeometry x="401" y="-185" width="130" height="150" as="geometry" />
        </mxCell>
        <mxCell id="XcjkZ8PYF90F7yrJVbhF-40" style="edgeStyle=orthogonalEdgeStyle;rounded=0;jumpStyle=none;orthogonalLoop=1;jettySize=auto;html=1;strokeWidth=2;exitX=0.5;exitY=1;exitDx=0;exitDy=0;entryX=0;entryY=0.5;entryDx=0;entryDy=0;" parent="OZ9AxooTVeGa2e1UKhC_-1" source="PnaUjTbA2eYcw9_eckQJ-141" target="7ZSVmvyxEU6zFuQFi4_P-17" edge="1">
          <mxGeometry relative="1" as="geometry">
            <mxPoint x="680" y="-25" as="targetPoint" />
            <mxPoint x="465.01" y="15" as="sourcePoint" />
            <Array as="points">
              <mxPoint x="466" y="55" />
              <mxPoint x="520" y="55" />
            </Array>
          </mxGeometry>
        </mxCell>
        <mxCell id="XcjkZ8PYF90F7yrJVbhF-41" value="&lt;font size=&quot;1&quot;&gt;&lt;b style=&quot;font-size: 15px&quot;&gt;No&lt;/b&gt;&lt;/font&gt;" style="edgeLabel;html=1;align=center;verticalAlign=middle;resizable=0;points=[];" parent="XcjkZ8PYF90F7yrJVbhF-40" vertex="1" connectable="0">
          <mxGeometry x="-0.9" y="-1" relative="1" as="geometry">
            <mxPoint x="1.0100000000000007" y="-11" as="offset" />
          </mxGeometry>
        </mxCell>
        <mxCell id="gcGsXrnnqoqhViTeDqAT-0" value="&lt;font style=&quot;font-size: 12px;&quot;&gt;&lt;b&gt;90%&lt;/b&gt;&lt;/font&gt;" style="edgeLabel;html=1;align=center;verticalAlign=middle;resizable=0;points=[];" vertex="1" connectable="0" parent="XcjkZ8PYF90F7yrJVbhF-40">
          <mxGeometry x="0.7393" y="2" relative="1" as="geometry">
            <mxPoint x="-69" y="-8" as="offset" />
          </mxGeometry>
        </mxCell>
        <mxCell id="3t-5_ZxKbkYWqgZyLfev-4" style="edgeStyle=orthogonalEdgeStyle;rounded=0;jumpStyle=arc;orthogonalLoop=1;jettySize=auto;html=1;exitX=1;exitY=0.5;exitDx=0;exitDy=0;entryX=0;entryY=0.5;entryDx=0;entryDy=0;strokeWidth=1;" parent="OZ9AxooTVeGa2e1UKhC_-1" source="3t-5_ZxKbkYWqgZyLfev-3" target="WoaGg1t7EKX_rNA6zbp_-18" edge="1">
          <mxGeometry relative="1" as="geometry" />
        </mxCell>
        <mxCell id="3t-5_ZxKbkYWqgZyLfev-6" value="&lt;font size=&quot;1&quot;&gt;&lt;b style=&quot;font-size: 15px&quot;&gt;Yes&lt;/b&gt;&lt;/font&gt;" style="edgeLabel;html=1;align=center;verticalAlign=middle;resizable=0;points=[];" parent="3t-5_ZxKbkYWqgZyLfev-4" vertex="1" connectable="0">
          <mxGeometry x="-0.6746" y="5" relative="1" as="geometry">
            <mxPoint x="10.5" y="5" as="offset" />
          </mxGeometry>
        </mxCell>
        <mxCell id="3t-5_ZxKbkYWqgZyLfev-5" style="edgeStyle=orthogonalEdgeStyle;rounded=0;jumpStyle=arc;orthogonalLoop=1;jettySize=auto;html=1;exitX=0.5;exitY=1;exitDx=0;exitDy=0;strokeWidth=1;" parent="OZ9AxooTVeGa2e1UKhC_-1" source="3t-5_ZxKbkYWqgZyLfev-3" edge="1">
          <mxGeometry relative="1" as="geometry">
            <mxPoint x="756" y="-465" as="targetPoint" />
          </mxGeometry>
        </mxCell>
        <mxCell id="3t-5_ZxKbkYWqgZyLfev-7" value="&lt;font size=&quot;1&quot;&gt;&lt;b style=&quot;font-size: 15px&quot;&gt;No&lt;/b&gt;&lt;/font&gt;" style="edgeLabel;html=1;align=center;verticalAlign=middle;resizable=0;points=[];" parent="3t-5_ZxKbkYWqgZyLfev-5" vertex="1" connectable="0">
          <mxGeometry x="-0.7111" relative="1" as="geometry">
            <mxPoint y="14" as="offset" />
          </mxGeometry>
        </mxCell>
        <mxCell id="3t-5_ZxKbkYWqgZyLfev-3" value="&lt;span style=&quot;color: rgb(71 , 71 , 70) ; font-family: &amp;#34;arial&amp;#34;&quot;&gt;&lt;b&gt;&lt;font style=&quot;font-size: 14px&quot;&gt;Legacy &lt;br&gt;code base and/or architecture?&lt;/font&gt;&lt;/b&gt;&lt;/span&gt;" style="rhombus;whiteSpace=wrap;html=1;fillColor=#d5e8d4;strokeWidth=1;strokeColor=#82B366;" parent="OZ9AxooTVeGa2e1UKhC_-1" vertex="1">
          <mxGeometry x="691" y="-690" width="130" height="150" as="geometry" />
        </mxCell>
        <mxCell id="Tlm04AckMEZkmt3LNepM-13" style="edgeStyle=orthogonalEdgeStyle;rounded=0;jumpStyle=arc;orthogonalLoop=1;jettySize=auto;html=1;exitX=0.25;exitY=1;exitDx=0;exitDy=0;strokeWidth=1;endArrow=none;endFill=0;" parent="OZ9AxooTVeGa2e1UKhC_-1" edge="1">
          <mxGeometry relative="1" as="geometry">
            <mxPoint x="1211" y="271.98" as="targetPoint" />
            <mxPoint x="1201" y="91.98000000000002" as="sourcePoint" />
            <Array as="points">
              <mxPoint x="1201" y="271.98" />
              <mxPoint x="1211" y="271.98" />
            </Array>
          </mxGeometry>
        </mxCell>
        <mxCell id="Tlm04AckMEZkmt3LNepM-14" value="" style="endArrow=oval;html=1;strokeWidth=1;endFill=1;" parent="OZ9AxooTVeGa2e1UKhC_-1" edge="1">
          <mxGeometry width="50" height="50" relative="1" as="geometry">
            <mxPoint x="1201" y="121.98000000000002" as="sourcePoint" />
            <mxPoint x="1221" y="121.98000000000002" as="targetPoint" />
          </mxGeometry>
        </mxCell>
        <mxCell id="Tlm04AckMEZkmt3LNepM-15" value="" style="endArrow=oval;html=1;strokeWidth=1;endFill=1;" parent="OZ9AxooTVeGa2e1UKhC_-1" edge="1">
          <mxGeometry width="50" height="50" relative="1" as="geometry">
            <mxPoint x="1201" y="151.98000000000002" as="sourcePoint" />
            <mxPoint x="1221" y="151.98000000000002" as="targetPoint" />
          </mxGeometry>
        </mxCell>
        <mxCell id="Tlm04AckMEZkmt3LNepM-16" value="&lt;font style=&quot;font-size: 14px&quot;&gt;Containers &amp;amp; Microservices&lt;/font&gt;" style="text;html=1;strokeColor=none;fillColor=none;align=left;verticalAlign=middle;whiteSpace=wrap;rounded=0;" parent="OZ9AxooTVeGa2e1UKhC_-1" vertex="1">
          <mxGeometry x="1230" y="109.98000000000002" width="180" height="20" as="geometry" />
        </mxCell>
        <mxCell id="Tlm04AckMEZkmt3LNepM-17" value="&lt;span&gt;&lt;font style=&quot;font-size: 14px&quot;&gt;Managed Services / Databases&lt;/font&gt;&lt;/span&gt;" style="text;html=1;strokeColor=none;fillColor=none;align=left;verticalAlign=middle;whiteSpace=wrap;rounded=0;" parent="OZ9AxooTVeGa2e1UKhC_-1" vertex="1">
          <mxGeometry x="1230" y="139.98000000000002" width="118" height="20" as="geometry" />
        </mxCell>
        <mxCell id="Tlm04AckMEZkmt3LNepM-18" value="" style="endArrow=oval;html=1;strokeWidth=1;endFill=1;" parent="OZ9AxooTVeGa2e1UKhC_-1" edge="1">
          <mxGeometry width="50" height="50" relative="1" as="geometry">
            <mxPoint x="1201" y="183.98000000000002" as="sourcePoint" />
            <mxPoint x="1221" y="183.98000000000002" as="targetPoint" />
          </mxGeometry>
        </mxCell>
        <mxCell id="Tlm04AckMEZkmt3LNepM-19" value="&lt;font style=&quot;font-size: 14px&quot;&gt;Code Refactoring&lt;/font&gt;" style="text;html=1;strokeColor=none;fillColor=none;align=center;verticalAlign=middle;whiteSpace=wrap;rounded=0;" parent="OZ9AxooTVeGa2e1UKhC_-1" vertex="1">
          <mxGeometry x="1228" y="171.98000000000002" width="119" height="20" as="geometry" />
        </mxCell>
        <mxCell id="Tlm04AckMEZkmt3LNepM-20" value="" style="endArrow=oval;html=1;strokeWidth=1;endFill=1;" parent="OZ9AxooTVeGa2e1UKhC_-1" edge="1">
          <mxGeometry width="50" height="50" relative="1" as="geometry">
            <mxPoint x="1201" y="213.98000000000002" as="sourcePoint" />
            <mxPoint x="1221" y="213.98000000000002" as="targetPoint" />
          </mxGeometry>
        </mxCell>
        <mxCell id="Tlm04AckMEZkmt3LNepM-21" value="&lt;font style=&quot;font-size: 14px&quot;&gt;DevOps&lt;/font&gt;" style="text;html=1;strokeColor=none;fillColor=none;align=center;verticalAlign=middle;whiteSpace=wrap;rounded=0;" parent="OZ9AxooTVeGa2e1UKhC_-1" vertex="1">
          <mxGeometry x="1232" y="201.98000000000002" width="51" height="20" as="geometry" />
        </mxCell>
        <mxCell id="Tlm04AckMEZkmt3LNepM-22" style="edgeStyle=orthogonalEdgeStyle;rounded=0;jumpStyle=arc;orthogonalLoop=1;jettySize=auto;html=1;exitX=0.25;exitY=1;exitDx=0;exitDy=0;strokeWidth=1;endArrow=none;endFill=0;" parent="OZ9AxooTVeGa2e1UKhC_-1" edge="1">
          <mxGeometry relative="1" as="geometry">
            <mxPoint x="890" y="252.98000000000002" as="targetPoint" />
            <mxPoint x="880" y="91.98000000000002" as="sourcePoint" />
            <Array as="points">
              <mxPoint x="880" y="252.98000000000002" />
            </Array>
          </mxGeometry>
        </mxCell>
        <mxCell id="Tlm04AckMEZkmt3LNepM-23" value="" style="endArrow=oval;html=1;strokeWidth=1;endFill=1;" parent="OZ9AxooTVeGa2e1UKhC_-1" edge="1">
          <mxGeometry width="50" height="50" relative="1" as="geometry">
            <mxPoint x="880" y="121.98000000000002" as="sourcePoint" />
            <mxPoint x="900" y="121.98000000000002" as="targetPoint" />
          </mxGeometry>
        </mxCell>
        <mxCell id="Tlm04AckMEZkmt3LNepM-24" value="" style="endArrow=oval;html=1;strokeWidth=1;endFill=1;" parent="OZ9AxooTVeGa2e1UKhC_-1" edge="1">
          <mxGeometry width="50" height="50" relative="1" as="geometry">
            <mxPoint x="880" y="163.98000000000002" as="sourcePoint" />
            <mxPoint x="900" y="163.98000000000002" as="targetPoint" />
          </mxGeometry>
        </mxCell>
        <mxCell id="Tlm04AckMEZkmt3LNepM-25" value="&lt;font style=&quot;font-size: 14px&quot;&gt;New Amazon Machine Image (AMI)&amp;nbsp;&lt;/font&gt;" style="text;html=1;strokeColor=none;fillColor=none;align=left;verticalAlign=middle;whiteSpace=wrap;rounded=0;" parent="OZ9AxooTVeGa2e1UKhC_-1" vertex="1">
          <mxGeometry x="909" y="109.98000000000002" width="161" height="20" as="geometry" />
        </mxCell>
        <mxCell id="Tlm04AckMEZkmt3LNepM-26" value="&lt;font style=&quot;font-size: 14px&quot;&gt;Managed Services / Databases&lt;/font&gt;" style="text;html=1;strokeColor=none;fillColor=none;align=left;verticalAlign=middle;whiteSpace=wrap;rounded=0;" parent="OZ9AxooTVeGa2e1UKhC_-1" vertex="1">
          <mxGeometry x="909" y="151.98000000000002" width="141" height="20" as="geometry" />
        </mxCell>
        <mxCell id="Tlm04AckMEZkmt3LNepM-27" value="" style="endArrow=oval;html=1;strokeWidth=1;endFill=1;" parent="OZ9AxooTVeGa2e1UKhC_-1" edge="1">
          <mxGeometry width="50" height="50" relative="1" as="geometry">
            <mxPoint x="880" y="195.98000000000002" as="sourcePoint" />
            <mxPoint x="900" y="195.98000000000002" as="targetPoint" />
          </mxGeometry>
        </mxCell>
        <mxCell id="Tlm04AckMEZkmt3LNepM-28" value="&lt;font style=&quot;font-size: 14px&quot;&gt;Containerize&lt;/font&gt;" style="text;html=1;strokeColor=none;fillColor=none;align=center;verticalAlign=middle;whiteSpace=wrap;rounded=0;" parent="OZ9AxooTVeGa2e1UKhC_-1" vertex="1">
          <mxGeometry x="902" y="183.98000000000002" width="96" height="20" as="geometry" />
        </mxCell>
        <mxCell id="Tlm04AckMEZkmt3LNepM-29" value="" style="endArrow=oval;html=1;strokeWidth=1;endFill=1;" parent="OZ9AxooTVeGa2e1UKhC_-1" edge="1">
          <mxGeometry width="50" height="50" relative="1" as="geometry">
            <mxPoint x="880" y="225.98000000000002" as="sourcePoint" />
            <mxPoint x="900" y="225.98000000000002" as="targetPoint" />
          </mxGeometry>
        </mxCell>
        <mxCell id="Tlm04AckMEZkmt3LNepM-30" value="&lt;font style=&quot;font-size: 14px&quot;&gt;DevOps&lt;/font&gt;" style="text;html=1;strokeColor=none;fillColor=none;align=center;verticalAlign=middle;whiteSpace=wrap;rounded=0;" parent="OZ9AxooTVeGa2e1UKhC_-1" vertex="1">
          <mxGeometry x="911" y="213.98000000000002" width="51" height="20" as="geometry" />
        </mxCell>
        <mxCell id="Tlm04AckMEZkmt3LNepM-32" value="" style="endArrow=oval;html=1;strokeWidth=1;endFill=1;" parent="OZ9AxooTVeGa2e1UKhC_-1" edge="1">
          <mxGeometry width="50" height="50" relative="1" as="geometry">
            <mxPoint x="538.5" y="121.98000000000002" as="sourcePoint" />
            <mxPoint x="558.5" y="121.98000000000002" as="targetPoint" />
          </mxGeometry>
        </mxCell>
        <mxCell id="Tlm04AckMEZkmt3LNepM-33" value="" style="endArrow=oval;html=1;strokeWidth=1;endFill=1;" parent="OZ9AxooTVeGa2e1UKhC_-1" edge="1">
          <mxGeometry width="50" height="50" relative="1" as="geometry">
            <mxPoint x="538.5" y="162.98000000000002" as="sourcePoint" />
            <mxPoint x="558.5" y="162.98000000000002" as="targetPoint" />
          </mxGeometry>
        </mxCell>
        <mxCell id="Tlm04AckMEZkmt3LNepM-34" value="&lt;font style=&quot;font-size: 14px&quot;&gt;AWS Application Migration Service (MGN)&lt;/font&gt;" style="text;html=1;strokeColor=none;fillColor=none;align=left;verticalAlign=middle;whiteSpace=wrap;rounded=0;" parent="OZ9AxooTVeGa2e1UKhC_-1" vertex="1">
          <mxGeometry x="567.5" y="109.98000000000002" width="199" height="20" as="geometry" />
        </mxCell>
        <mxCell id="Tlm04AckMEZkmt3LNepM-35" value="&lt;font style=&quot;font-size: 14px&quot;&gt;AWS Migration Hub Refactor Spaces&lt;/font&gt;" style="text;html=1;strokeColor=none;fillColor=none;align=center;verticalAlign=middle;whiteSpace=wrap;rounded=0;" parent="OZ9AxooTVeGa2e1UKhC_-1" vertex="1">
          <mxGeometry x="1208.75" y="221.98000000000002" width="167.75" height="50" as="geometry" />
        </mxCell>
        <mxCell id="Tlm04AckMEZkmt3LNepM-40" style="edgeStyle=orthogonalEdgeStyle;rounded=0;jumpStyle=arc;orthogonalLoop=1;jettySize=auto;html=1;exitX=0.25;exitY=1;exitDx=0;exitDy=0;strokeWidth=1;endArrow=none;endFill=0;" parent="OZ9AxooTVeGa2e1UKhC_-1" edge="1">
          <mxGeometry relative="1" as="geometry">
            <mxPoint x="555" y="181.98000000000002" as="targetPoint" />
            <mxPoint x="539" y="91.98000000000002" as="sourcePoint" />
            <Array as="points">
              <mxPoint x="539" y="181.98000000000002" />
              <mxPoint x="555" y="181.98000000000002" />
            </Array>
          </mxGeometry>
        </mxCell>
        <mxCell id="KeZDLWuDLhJqC3MhvnPk-6" style="edgeStyle=orthogonalEdgeStyle;rounded=0;jumpStyle=arc;orthogonalLoop=1;jettySize=auto;html=1;exitX=0.5;exitY=1;exitDx=0;exitDy=0;strokeWidth=1;entryX=0.5;entryY=0;entryDx=0;entryDy=0;" parent="OZ9AxooTVeGa2e1UKhC_-1" source="PnaUjTbA2eYcw9_eckQJ-119" edge="1">
          <mxGeometry relative="1" as="geometry">
            <mxPoint x="766" y="-530" as="sourcePoint" />
            <mxPoint x="465" y="-415" as="targetPoint" />
            <Array as="points" />
          </mxGeometry>
        </mxCell>
        <mxCell id="KeZDLWuDLhJqC3MhvnPk-7" value="&lt;font size=&quot;1&quot;&gt;&lt;b style=&quot;font-size: 15px&quot;&gt;Medium / Low&lt;/b&gt;&lt;/font&gt;" style="edgeLabel;html=1;align=center;verticalAlign=middle;resizable=0;points=[];" parent="KeZDLWuDLhJqC3MhvnPk-6" vertex="1" connectable="0">
          <mxGeometry x="-0.7111" relative="1" as="geometry">
            <mxPoint y="13" as="offset" />
          </mxGeometry>
        </mxCell>
        <mxCell id="KeZDLWuDLhJqC3MhvnPk-9" value="" style="endArrow=oval;html=1;strokeWidth=1;endFill=1;" parent="OZ9AxooTVeGa2e1UKhC_-1" edge="1">
          <mxGeometry width="50" height="50" relative="1" as="geometry">
            <mxPoint x="1201.5" y="242.98000000000002" as="sourcePoint" />
            <mxPoint x="1221.5" y="242.98000000000002" as="targetPoint" />
          </mxGeometry>
        </mxCell>
        <mxCell id="KeZDLWuDLhJqC3MhvnPk-10" value="&lt;font style=&quot;font-size: 14px&quot;&gt;Amazon Elastic Compute Cloud&lt;/font&gt;" style="text;html=1;strokeColor=none;fillColor=none;align=center;verticalAlign=middle;whiteSpace=wrap;rounded=0;" parent="OZ9AxooTVeGa2e1UKhC_-1" vertex="1">
          <mxGeometry x="562.5" y="151.98000000000002" width="209" height="20" as="geometry" />
        </mxCell>
        <mxCell id="17NxdBk9iJhNhV06l2LF-4" style="edgeStyle=orthogonalEdgeStyle;rounded=0;orthogonalLoop=1;jettySize=auto;html=1;exitX=0.5;exitY=1;exitDx=0;exitDy=0;" parent="OZ9AxooTVeGa2e1UKhC_-1" source="17NxdBk9iJhNhV06l2LF-0" target="17NxdBk9iJhNhV06l2LF-3" edge="1">
          <mxGeometry relative="1" as="geometry" />
        </mxCell>
        <mxCell id="17NxdBk9iJhNhV06l2LF-5" value="&lt;font style=&quot;font-size: 15px&quot;&gt;&lt;b&gt;Yes&lt;/b&gt;&lt;/font&gt;" style="edgeLabel;html=1;align=center;verticalAlign=middle;resizable=0;points=[];" parent="17NxdBk9iJhNhV06l2LF-4" vertex="1" connectable="0">
          <mxGeometry x="-0.525" y="2" relative="1" as="geometry">
            <mxPoint x="-1.5" y="-19" as="offset" />
          </mxGeometry>
        </mxCell>
        <mxCell id="17NxdBk9iJhNhV06l2LF-7" style="edgeStyle=orthogonalEdgeStyle;rounded=0;orthogonalLoop=1;jettySize=auto;html=1;exitX=0.5;exitY=1;exitDx=0;exitDy=0;entryX=0.5;entryY=0;entryDx=0;entryDy=0;" parent="OZ9AxooTVeGa2e1UKhC_-1" source="17NxdBk9iJhNhV06l2LF-0" target="17NxdBk9iJhNhV06l2LF-6" edge="1">
          <mxGeometry relative="1" as="geometry" />
        </mxCell>
        <mxCell id="17NxdBk9iJhNhV06l2LF-0" value="&lt;span style=&quot;color: rgb(71 , 71 , 70) ; font-family: &amp;#34;arial&amp;#34;&quot;&gt;&lt;b&gt;&lt;font style=&quot;font-size: 14px&quot;&gt;Application supports hybrid approach?&lt;/font&gt;&lt;/b&gt;&lt;/span&gt;" style="rhombus;whiteSpace=wrap;html=1;fillColor=#d5e8d4;strokeColor=#82b366;" parent="OZ9AxooTVeGa2e1UKhC_-1" vertex="1">
          <mxGeometry x="1080" y="-420" width="130" height="150" as="geometry" />
        </mxCell>
        <mxCell id="17NxdBk9iJhNhV06l2LF-8" style="edgeStyle=orthogonalEdgeStyle;rounded=0;orthogonalLoop=1;jettySize=auto;html=1;exitX=0;exitY=0.5;exitDx=0;exitDy=0;strokeWidth=1;jumpStyle=arc;" parent="OZ9AxooTVeGa2e1UKhC_-1" source="17NxdBk9iJhNhV06l2LF-3" edge="1">
          <mxGeometry relative="1" as="geometry">
            <mxPoint x="940" y="-465" as="targetPoint" />
            <Array as="points">
              <mxPoint x="940" y="-155" />
            </Array>
          </mxGeometry>
        </mxCell>
        <mxCell id="17NxdBk9iJhNhV06l2LF-3" value="&lt;b style=&quot;color: rgb(71 , 71 , 70) ; font-family: &amp;quot;arial&amp;quot; ; font-size: 14px&quot;&gt;Migrate supported portions to AWS&lt;/b&gt;" style="rounded=1;whiteSpace=wrap;html=1;fillColor=#dae8fc;strokeColor=#6c8ebf;" parent="OZ9AxooTVeGa2e1UKhC_-1" vertex="1">
          <mxGeometry x="994" y="-190" width="134" height="70" as="geometry" />
        </mxCell>
        <mxCell id="17NxdBk9iJhNhV06l2LF-6" value="&lt;b style=&quot;color: rgb(71, 71, 70); font-family: arial; font-size: 14px;&quot;&gt;Retain unsupported portions ADC&lt;/b&gt;" style="rounded=1;whiteSpace=wrap;html=1;fillColor=#dae8fc;strokeColor=#6c8ebf;" parent="OZ9AxooTVeGa2e1UKhC_-1" vertex="1">
          <mxGeometry x="1155" y="-190" width="134" height="70" as="geometry" />
        </mxCell>
      </root>
    </mxGraphModel>
  </diagram>
  <diagram name="Glossary and Information" id="LD7RmZ6W7AMHjASWc6P3">
    <mxGraphModel dx="2118" dy="1085" grid="1" gridSize="10" guides="1" tooltips="1" connect="1" arrows="1" fold="1" page="1" pageScale="1" pageWidth="827" pageHeight="1169" math="0" shadow="0">
      <root>
        <mxCell id="DoUkRrNKk3-1lUpl4Vq--0" />
        <mxCell id="DoUkRrNKk3-1lUpl4Vq--1" parent="DoUkRrNKk3-1lUpl4Vq--0" />
        <mxCell id="DoUkRrNKk3-1lUpl4Vq--2" value="&lt;h1&gt;Terminology used&lt;/h1&gt;&lt;p&gt;&lt;b&gt;Application:&lt;font style=&quot;font-size: 12px&quot;&gt;&amp;nbsp;&lt;/font&gt;&lt;/b&gt;&lt;font style=&quot;font-size: 12px&quot;&gt;a program, database, module, service, package, etc. including supporting infrastructure.&lt;/font&gt;&lt;/p&gt;&lt;p&gt;&lt;b style=&quot;background-color: initial;&quot;&gt;Migration/Modernization Strategy: &lt;/b&gt;&lt;span style=&quot;background-color: initial;&quot;&gt;A high-level description of the approach to move the application or service. For example: Rehost.&lt;/span&gt;&lt;br&gt;&lt;/p&gt;&lt;p&gt;&lt;b&gt;MGN:&lt;/b&gt;&amp;nbsp;AWS Application Migration Service&lt;/p&gt;&lt;p&gt;&lt;b&gt;EOL:&lt;/b&gt;&lt;span&gt; End Of Life&lt;/span&gt;&lt;br&gt;&lt;/p&gt;&lt;p&gt;&lt;b&gt;EOSL:&lt;/b&gt; End Of Service Life&lt;/p&gt;&lt;p&gt;&lt;b&gt;COTS:&lt;/b&gt; (Commercial Of The Shelf) product&lt;/p&gt;&lt;p&gt;&lt;b&gt;SaaS:&lt;/b&gt; (Software as a Service) product&lt;br&gt;&lt;/p&gt;&lt;p&gt;&lt;b&gt;N/A:&lt;/b&gt; Not Applicable&lt;/p&gt;&lt;h1&gt;Strategy Definitions:&lt;/h1&gt;&lt;p&gt;&lt;span&gt;&lt;b&gt;Retire:&lt;/b&gt; Decommission the application without migrating or modernizing.&lt;/span&gt;&lt;br&gt;&lt;/p&gt;&lt;p&gt;&lt;span&gt;&lt;b&gt;Retain:&lt;/b&gt; Do nothing and keep running the application in the current location.&lt;/span&gt;&lt;/p&gt;&lt;p&gt;&lt;span&gt;&lt;b&gt;Rehost:&lt;/b&gt; Rapid migration of servers and applications without architectural, technology or functionality changes.&amp;nbsp;&lt;/span&gt;&lt;/p&gt;&lt;p&gt;&lt;b&gt;Relocate&lt;/b&gt;: Rapid migration of servers and applications to vmware cloud on AWS.&lt;/p&gt;&lt;p&gt;&lt;b&gt;Repurchase:&lt;/b&gt; Purchase, configure or customize a COTS (Commercial Of The Shelf) or SaaS (Software as a Service) product.&lt;/p&gt;&lt;p&gt;&lt;b&gt;Replatform:&lt;/b&gt; Enhancement or upgrade of the application underlaying components such as Operating System and Databases.&lt;/p&gt;&lt;p&gt;&lt;b&gt;Refactor / Re-architect&lt;/b&gt;&lt;span&gt;: Modernization of the application by applying substantial changes to the code base and/or changing its architecture (e.g., containerization, serverless)&lt;/span&gt;&lt;/p&gt;&lt;p&gt;&lt;br&gt;&lt;/p&gt;&lt;p&gt;&lt;br&gt;&lt;/p&gt;" style="text;html=1;strokeColor=none;fillColor=none;spacing=5;spacingTop=-20;whiteSpace=wrap;overflow=hidden;rounded=0;" parent="DoUkRrNKk3-1lUpl4Vq--1" vertex="1">
          <mxGeometry x="80" y="60" width="660" height="660" as="geometry" />
        </mxCell>
      </root>
    </mxGraphModel>
  </diagram>
</mxfile>
